<svg width="26" height="16" viewBox="0 0 26 16" fill="none" xmlns="http://www.w3.org/2000/svg">
<path d="M5.3241 3.13544C6.32468 2.152 7.5189 1.37073 8.83685 0.837373C10.1548 0.304018 11.57 0.0292969 12.9995 0.0292969C14.4291 0.0292969 15.8442 0.304018 17.1622 0.837373C18.4801 1.37073 19.6744 2.152 20.6749 3.13544L21.1848 3.63422C21.2867 3.73435 21.3438 3.86897 21.3438 4.00918C21.3438 4.14938 21.2867 4.284 21.1848 4.38413L19.4399 6.08917C19.4149 6.11383 19.385 6.13341 19.352 6.14679C19.319 6.16016 19.2836 6.16705 19.2478 6.16705C19.212 6.16705 19.1766 6.16016 19.1436 6.14679C19.1106 6.13341 19.0807 6.11383 19.0557 6.08917L18.3537 5.40326C17.6557 4.71714 16.8226 4.17206 15.9032 3.79994C14.9837 3.42782 13.9965 3.23615 12.9992 3.23615C12.0019 3.23615 11.0146 3.42782 10.0951 3.79994C9.1757 4.17206 8.34259 4.71714 7.6446 5.40326L6.89349 6.13787C6.86846 6.16252 6.83858 6.18211 6.80559 6.19548C6.7726 6.20886 6.73717 6.21575 6.70138 6.21575C6.66558 6.21575 6.63015 6.20886 6.59716 6.19548C6.56417 6.18211 6.53429 6.16252 6.50926 6.13787L4.76365 4.43283C4.66176 4.3327 4.60468 4.19808 4.60468 4.05787C4.60468 3.91766 4.66176 3.78304 4.76365 3.68291L5.3241 3.13544ZM24.2839 6.66239L25.8366 8.17961C25.9385 8.27974 25.9956 8.41436 25.9956 8.55457C25.9956 8.69477 25.9385 8.82939 25.8366 8.92952L18.8333 15.7727C18.7832 15.8219 18.7235 15.8609 18.6576 15.8876C18.5917 15.9143 18.5209 15.928 18.4494 15.928C18.3779 15.928 18.3071 15.9143 18.2412 15.8876C18.1753 15.8609 18.1156 15.8219 18.0655 15.7727L13.0952 10.9163C13.0827 10.904 13.0678 10.8942 13.0513 10.8875C13.0348 10.8808 13.017 10.8774 12.9992 10.8774C12.9813 10.8774 12.9635 10.8808 12.947 10.8875C12.9306 10.8942 12.9156 10.904 12.9031 10.9163L7.93276 15.772C7.88273 15.8212 7.82301 15.8602 7.7571 15.8869C7.69118 15.9136 7.6204 15.9274 7.5489 15.9274C7.4774 15.9274 7.40662 15.9136 7.34071 15.8869C7.2748 15.8602 7.21507 15.8212 7.16504 15.772L0.161654 8.93022C0.0597594 8.83009 0.00268555 8.69547 0.00268555 8.55526C0.00268555 8.41505 0.0597594 8.28043 0.161654 8.1803L1.71443 6.66309C1.76446 6.61389 1.82419 6.5748 1.8901 6.54812C1.95601 6.52144 2.02679 6.50769 2.09829 6.50769C2.16979 6.50769 2.24057 6.52144 2.30649 6.54812C2.3724 6.5748 2.43212 6.61389 2.48215 6.66309L7.45321 11.5194C7.46571 11.5317 7.4806 11.5414 7.49703 11.548C7.51346 11.5546 7.53109 11.558 7.5489 11.558C7.56671 11.558 7.58434 11.5546 7.60077 11.548C7.6172 11.5414 7.6321 11.5317 7.6446 11.5194L12.6157 6.66309C12.6657 6.614 12.7254 6.575 12.7912 6.54838C12.857 6.52176 12.9277 6.50805 12.9992 6.50805C13.0706 6.50805 13.1413 6.52176 13.2071 6.54838C13.273 6.575 13.3326 6.614 13.3827 6.66309L18.3537 11.5194C18.3662 11.5318 18.3812 11.5416 18.3977 11.5482C18.4142 11.5549 18.4319 11.5584 18.4498 11.5584C18.4677 11.5584 18.4854 11.5549 18.5019 11.5482C18.5184 11.5416 18.5333 11.5318 18.5458 11.5194L23.5162 6.66309C23.5662 6.61389 23.6259 6.5748 23.6918 6.54812C23.7577 6.52144 23.8285 6.50769 23.9 6.50769C23.9715 6.50769 24.0423 6.52144 24.1082 6.54812C24.1741 6.5748 24.2338 6.61389 24.2839 6.66309V6.66239Z" fill="white"/>
</svg>
