<svg width="29" height="27" viewBox="0 0 29 27" fill="none" xmlns="http://www.w3.org/2000/svg">
<path d="M26.6911 1L16.1327 8.8125L18.0961 4.20834L26.6911 1Z" fill="#E17726" stroke="#E17726" strokeWidth="0.25" strokeLinecap="round" strokeLinejoin="round"/>
<path d="M2.33679 1L12.8012 8.88541L10.9319 4.20833L2.33679 1Z" fill="#E27625" stroke="#E27625" strokeWidth="0.25" strokeLinecap="round" strokeLinejoin="round"/>
<path d="M22.8894 19.1147L20.0801 23.4064L26.0956 25.0627L27.8188 19.2086L22.8894 19.1147Z" fill="#E27625" stroke="#E27625" strokeWidth="0.25" strokeLinecap="round" strokeLinejoin="round"/>
<path d="M1.21924 19.2086L2.93197 25.0627L8.93703 23.4064L6.13814 19.1147L1.21924 19.2086Z" fill="#E27625" stroke="#E27625" strokeWidth="0.25" strokeLinecap="round" strokeLinejoin="round"/>
<path d="M8.6132 11.8646L6.94226 14.3854L12.8951 14.6562L12.6967 8.25L8.6132 11.8646Z" fill="#E27625" stroke="#E27625" strokeWidth="0.25" strokeLinecap="round" strokeLinejoin="round"/>
<path d="M20.4143 11.8647L16.2683 8.17725L16.1325 14.6564L22.0853 14.3856L20.4143 11.8647Z" fill="#E27625" stroke="#E27625" strokeWidth="0.25" strokeLinecap="round" strokeLinejoin="round"/>
<path d="M8.93713 23.4062L12.5401 21.6667L9.43844 19.25L8.93713 23.4062Z" fill="#E27625" stroke="#E27625" strokeWidth="0.25" strokeLinecap="round" strokeLinejoin="round"/>
<path d="M16.4878 21.6667L20.0803 23.4062L19.5895 19.25L16.4878 21.6667Z" fill="#E27625" stroke="#E27625" strokeWidth="0.25" strokeLinecap="round" strokeLinejoin="round"/>
<path d="M20.0803 23.4061L16.4878 21.6665L16.7802 23.9998L16.7488 24.9894L20.0803 23.4061Z" fill="#D5BFB2" stroke="#D5BFB2" strokeWidth="0.25" strokeLinecap="round" strokeLinejoin="round"/>
<path d="M8.93713 23.4061L12.2791 24.9894L12.2582 23.9998L12.5401 21.6665L8.93713 23.4061Z" fill="#D5BFB2" stroke="#D5BFB2" strokeWidth="0.25" strokeLinecap="round" strokeLinejoin="round"/>
<path d="M12.3416 17.7085L9.35474 16.8335L11.4643 15.8647L12.3416 17.7085Z" fill="#233447" stroke="#233447" strokeWidth="0.25" strokeLinecap="round" strokeLinejoin="round"/>
<path d="M16.6862 17.7085L17.5634 15.8647L19.6835 16.8335L16.6862 17.7085Z" fill="#233447" stroke="#233447" strokeWidth="0.25" strokeLinecap="round" strokeLinejoin="round"/>
<path d="M8.93703 23.4064L9.45924 19.1147L6.13818 19.2086L8.93703 23.4064Z" fill="#CC6228" stroke="#CC6228" strokeWidth="0.25" strokeLinecap="round" strokeLinejoin="round"/>
<path d="M19.5685 19.1147L20.0803 23.4064L22.8896 19.2086L19.5685 19.1147Z" fill="#CC6228" stroke="#CC6228" strokeWidth="0.25" strokeLinecap="round" strokeLinejoin="round"/>
<path d="M22.0853 14.3853L16.1325 14.6561L16.686 17.7082L17.5633 15.8644L19.6833 16.8332L22.0853 14.3853Z" fill="#CC6228" stroke="#CC6228" strokeWidth="0.25" strokeLinecap="round" strokeLinejoin="round"/>
<path d="M9.35471 16.8332L11.4643 15.8644L12.3416 17.7082L12.8951 14.6561L6.94226 14.3853L9.35471 16.8332Z" fill="#CC6228" stroke="#CC6228" strokeWidth="0.25" strokeLinecap="round" strokeLinejoin="round"/>
<path d="M6.94244 14.3853L9.43847 19.2499L9.35486 16.8332L6.94244 14.3853Z" fill="#E27525" stroke="#E27525" strokeWidth="0.25" strokeLinecap="round" strokeLinejoin="round"/>
<path d="M19.6835 16.8332L19.5895 19.2499L22.0856 14.3853L19.6835 16.8332Z" fill="#E27525" stroke="#E27525" strokeWidth="0.25" strokeLinecap="round" strokeLinejoin="round"/>
<path d="M12.8954 14.6562L12.3419 17.7084L13.0416 21.3125L13.1982 16.5625L12.8954 14.6562Z" fill="#E27525" stroke="#E27525" strokeWidth="0.25" strokeLinecap="round" strokeLinejoin="round"/>
<path d="M16.1327 14.6562L15.8403 16.5522L15.9865 21.3125L16.6862 17.7084L16.1327 14.6562Z" fill="#E27525" stroke="#E27525" strokeWidth="0.25" strokeLinecap="round" strokeLinejoin="round"/>
<path d="M16.6862 17.7085L15.9865 21.3126L16.4878 21.6668L19.5896 19.2502L19.6835 16.8335L16.6862 17.7085Z" fill="#F5841F" stroke="#F5841F" strokeWidth="0.25" strokeLinecap="round" strokeLinejoin="round"/>
<path d="M9.35474 16.8335L9.43834 19.2502L12.54 21.6668L13.0413 21.3126L12.3416 17.7085L9.35474 16.8335Z" fill="#F5841F" stroke="#F5841F" strokeWidth="0.25" strokeLinecap="round" strokeLinejoin="round"/>
<path d="M16.7489 24.9896L16.7802 24L16.5087 23.7708H12.5193L12.2582 24L12.2791 24.9896L8.93713 23.4062L10.1068 24.3646L12.4775 26H16.54L18.9211 24.3646L20.0803 23.4062L16.7489 24.9896Z" fill="#C0AC9D" stroke="#C0AC9D" strokeWidth="0.25" strokeLinecap="round" strokeLinejoin="round"/>
<path d="M16.4877 21.6666L15.9864 21.3125H13.0413L12.5401 21.6666L12.2581 24L12.5192 23.7708H16.5086L16.7801 24L16.4877 21.6666Z" fill="#161616" stroke="#161616" strokeWidth="0.25" strokeLinecap="round" strokeLinejoin="round"/>
<path d="M27.1401 9.32289L28.0279 5.01042L26.6911 1L16.4878 8.55212L20.4145 11.8646L25.96 13.4792L27.1819 12.0521L26.6494 11.6666L27.4952 10.8959L26.8478 10.3958L27.6937 9.75L27.1401 9.32289Z" fill="#763E1A" stroke="#763E1A" strokeWidth="0.25" strokeLinecap="round" strokeLinejoin="round"/>
<path d="M1 5.01042L1.89814 9.32289L1.32375 9.75L2.18012 10.3958L1.53262 10.8959L2.37854 11.6666L1.84592 12.0521L3.06782 13.4792L8.61337 11.8646L12.5401 8.55212L2.33677 1L1 5.01042Z" fill="#763E1A" stroke="#763E1A" strokeWidth="0.25" strokeLinecap="round" strokeLinejoin="round"/>
<path d="M25.9601 13.4793L20.4146 11.8647L22.0856 14.3856L19.5895 19.2501L22.8897 19.2085H27.819L25.9601 13.4793Z" fill="#F5841F" stroke="#F5841F" strokeWidth="0.25" strokeLinecap="round" strokeLinejoin="round"/>
<path d="M8.61322 11.8647L3.06774 13.4793L1.21924 19.2085H6.13814L9.43826 19.2501L6.94229 14.3856L8.61322 11.8647Z" fill="#F5841F" stroke="#F5841F" strokeWidth="0.25" strokeLinecap="round" strokeLinejoin="round"/>
<path d="M16.1326 14.6564L16.4877 8.55221L18.0959 4.2085H10.9317L12.54 8.55221L12.8951 14.6564L13.0308 16.5731L13.0413 21.3127H15.9864L15.9968 16.5731L16.1326 14.6564Z" fill="#F5841F" stroke="#F5841F" strokeWidth="0.25" strokeLinecap="round" strokeLinejoin="round"/>
</svg>
